<svg width="48" height="48" viewBox="0 0 48 48" fill="none" xmlns="http://www.w3.org/2000/svg"><path fill-rule="evenodd" clip-rule="evenodd" d="M24 0C10.7452 0 0 10.7452 0 24C0 37.2548 10.7452 48 24 48C37.2548 48 48 37.2548 48 24C48 10.7452 37.2548 0 24 0ZM18.4018 13.805C20.2463 12.6932 22.3488 12.107 24.4904 12.1073C27.6692 12.1073 30.7178 13.3974 32.9655 15.6938C35.2133 17.9901 36.476 21.1047 36.476 24.3522C36.476 27.5998 35.2133 30.7143 32.9655 33.0107C30.7178 35.307 27.6692 36.5971 24.4904 36.5971C18.9067 36.5971 14.2293 32.6925 12.8974 27.4134H16.0511C17.2901 30.9721 20.5816 33.5359 24.4904 33.5359C26.8745 33.5359 29.161 32.5683 30.8468 30.8461C32.5326 29.1238 33.4796 26.7879 33.4796 24.3522C33.482 22.1856 32.7341 20.088 31.3681 18.4307C30.0022 16.7733 28.1064 15.6631 26.0163 15.2966C23.9261 14.93 21.7764 15.3308 19.9477 16.4278C18.119 17.5249 16.7291 19.2476 16.0241 21.291H19.2467C19.4454 21.291 19.636 21.3716 19.7764 21.5151C19.9169 21.6587 19.9958 21.8533 19.9958 22.0563V23.5869C19.9958 23.7899 19.9169 23.9845 19.7764 24.1281C19.636 24.2716 19.4454 24.3522 19.2467 24.3522H11.7557C11.5571 24.3522 11.3665 24.2716 11.2261 24.1281C11.0856 23.9845 11.0066 23.7899 11.0066 23.5869V15.9338C11.0066 15.7309 11.0856 15.5362 11.2261 15.3927C11.3665 15.2492 11.5571 15.1685 11.7557 15.1685H13.2539C13.4526 15.1685 13.6432 15.2492 13.7836 15.3927C13.9241 15.5362 14.003 15.7309 14.003 15.9338V18.4287C15.0384 16.5135 16.5573 14.9168 18.4018 13.805Z" fill="#666"/></svg>
